<!-- <svg xmlns="http://www.w3.org/2000/svg" xmlns:xlink="http://www.w3.org/1999/xlink" width="360" height="380" viewBox="0 0 360 380"> -->
<svg xmlns="http://www.w3.org/2000/svg" xmlns:xlink="http://www.w3.org/1999/xlink" viewBox="0 0 360 380">
  <defs>
    <linearGradient id="linear-gradient" x1="1.134" y1="0.5" x2="2.134" y2="0.5" gradientUnits="objectBoundingBox">
      <stop offset="0" stop-color="gray" stop-opacity="0.251"/>
      <stop offset="0.54" stop-color="gray" stop-opacity="0.122"/>
      <stop offset="1" stop-color="gray" stop-opacity="0.102"/>
    </linearGradient>
  </defs>
  <g id="Group_4" data-name="Group 4" transform="translate(-219.07 -51.95)">
    <path id="Path_228" data-name="Path 228" d="M699.2,397.592a4.72,4.72,0,0,0,1.081,2.8,15.761,15.761,0,0,0,4.305,3.668v4.391s12.933,10.806,15.618,14.912c2.565,3.9,5.187,7.871,8.844,10.778a8.042,8.042,0,0,0,3.293,1.752.492.492,0,0,1,.216.034,3.412,3.412,0,0,1-1.263.779,3,3,0,0,0,3.526,2.537,5.869,5.869,0,0,0,1.752-.87l5.119-3.321a14.459,14.459,0,0,0,2.383-1.8c.961-.955,1.632-2.167,2.559-3.151,1.592-1.706,3.924-2.684,5.05-4.709a21.771,21.771,0,0,0,1.257-4.152c.284-.9.7-1.763.973-2.667a8.825,8.825,0,0,0,.33-1.666c.182.154.37.3.569.449.4-.256,1.137.421.984.864s-.609.751-.751,1.2c-.324,1.041.955,1.8,1.484,2.758s.267,2.156.324,3.265c.063,1.217.569,2.372.7,3.583.37,2.815-1.018,5.784-.04,8.446a2.688,2.688,0,0,0-2.633,2.053,7.723,7.723,0,0,0,.108,3.6,4.948,4.948,0,0,0-2.394,4.55,1.086,1.086,0,0,1-.12.808,1.137,1.137,0,0,1-.461.267,4.55,4.55,0,0,0-2.844,4.243,2.078,2.078,0,0,1-.085.9,2.008,2.008,0,0,1-.665.683,5.278,5.278,0,0,0-1.962,4.129,2.991,2.991,0,0,0,1.393,2.707h.057a14.611,14.611,0,0,0-4.88,9.214,38.01,38.01,0,0,0,.637,9.555l.29.04v.233a4.419,4.419,0,0,0,.461,1.376,19.906,19.906,0,0,1,1.746,7.092,6.26,6.26,0,0,0,.239,1.786,9.286,9.286,0,0,0,.91,1.575c1.086,1.757,1.337,3.879,1.706,5.909a46.885,46.885,0,0,0,2.07,7.746c1.234,3.412,2.9,6.95,2.338,10.55a10.627,10.627,0,0,0-.324,2.6,7.621,7.621,0,0,0,1.018,2.73c.415.819.791,1.666,1.137,2.525a2.059,2.059,0,0,0,.506,1.371c.091.267.171.535.256.8s.142.432.2.654a8.64,8.64,0,0,1,.25,1.1c0,.279-.034.569-.046.842s0,.535,0,.8a2.026,2.026,0,0,1-.387.722,2.743,2.743,0,0,1-.21.239c-.068.068-.131.142-.193.211a1.214,1.214,0,0,0-.216.318h0a1.558,1.558,0,0,0-.063.927,1.707,1.707,0,0,0,.074.37c.21.87.427,1.746.643,2.616l.2.779c.176.688.353,1.371.569,2.053v.091c.04.148.085.3.125.449l.461,1.666.29.99c.114.4.227.8.347,1.206q.421,1.4.853,2.815c2.895,9.538,5.989,19.019,7.9,28.8a3.083,3.083,0,0,0,1.137,1.706,6.683,6.683,0,0,0,2.019,1.086c.188,1.433.643,3.179.7,4.021.176,2.844.307,5.835-.722,8.412a.689.689,0,0,0-.609.2,24.362,24.362,0,0,0-1.86,1.968l-3.776,4.061a6.891,6.891,0,0,0-.859,1.047,3.645,3.645,0,0,0-.364,2.986,4.049,4.049,0,0,0,1.951,2.315,4.158,4.158,0,0,1,.62.353,3.406,3.406,0,0,0,.375.324,1.5,1.5,0,0,0,.836.154,29.393,29.393,0,0,0,6.376-1.086,3.779,3.779,0,0,0,3.526-2.986l.756-2.1a24.454,24.454,0,0,0,1.138-3.924,8.133,8.133,0,0,0-.21-4.049.746.746,0,0,0-.193.33q.279-1.769.569-3.532c.057-.358.108-.717.159-1.069.239,3.145-.222,6.319-.08,9.475a11.027,11.027,0,0,0-.313,1.769c.21,2.9,1.416,6.068,3.759,7.786a3.681,3.681,0,0,0,1.285.677,4.312,4.312,0,0,0,1.325.034,17.231,17.231,0,0,0,5.05-.955,6.194,6.194,0,0,0,3.634-3.447,7.854,7.854,0,0,0,.364-2.5,9.666,9.666,0,0,0-.228-2.628,19.517,19.517,0,0,0-1.337-3.071,29.682,29.682,0,0,1-1.5-4.521l-.7-2.565c-.2-.728-.4-1.456-.648-2.167a3.651,3.651,0,0,0-.9-1.706c-.3-.233-.489-.245-.614-.119v-.273a25.509,25.509,0,0,0,.182-3.009c-.193-1.649-1.473-2.935-2.309-4.374a8.691,8.691,0,0,1-.927-2.315c-.04-.176-.08-.353-.108-.535a1.748,1.748,0,0,1,.461-.3l1.439.842c-1.274-9.549-.6-19.57-4.305-28.437-1.615-3.862-4.738-7.894-4.385-12.069a3.415,3.415,0,0,1,.375-5.426c.626-.341,1.393-.506,1.82-1.075a2.812,2.812,0,0,0,.415-1.047,165.3,165.3,0,0,1,8-24.007c.722-1.706,1.467-3.412,2.212-5.09q1.263-2.844,2.514-5.687,1.536-3.475,3.065-6.95c1.029-2.338,2.07-5,1.092-7.394-.381-.927-1.075-1.809-.973-2.81.063-.643.455-1.211.569-1.848a4.669,4.669,0,0,0-.159-2.013c-.2-.876-.421-1.746-.654-2.616a13.489,13.489,0,0,1,1.945.375c.392-.66-.233-1.422-.614-2.087a7.041,7.041,0,0,1-.705-2.889q-.387-4.089-.774-8.173a14.736,14.736,0,0,1-.057-3.412c.165-1.2.62-2.343.853-3.538.444-2.275.04-4.658.142-7a32.786,32.786,0,0,1,1.069-6.091c.074-.3.148-.569.216-.887a4.909,4.909,0,0,0,1.172.2h.518l.33-.04h.159a3.793,3.793,0,0,0,.438-.108l.108-.04a3.719,3.719,0,0,0,.472-.188c-.188-.41-.37-.825-.569-1.246-.068-.165-.137-.336-.2-.506s-.188-.483-.273-.722-.159-.444-.233-.665-.12-.37-.176-.569-.159-.506-.233-.768-.142-.535-.21-.808a1.554,1.554,0,0,1,.074-.3,7.4,7.4,0,0,0,1.331.916q2.394,4.186,4.436,8.56a2.766,2.766,0,0,0,.415-1.041,5.143,5.143,0,0,0,.569.739,8.707,8.707,0,0,0,1.883,1.388,5.022,5.022,0,0,0,2.241.842,4.226,4.226,0,0,0,2.844-1.246c2.355-2.065,3.532-5.119,4.618-8.07a62.339,62.339,0,0,0,3.486-11.944c.665-4.4.381-8.963,1.644-13.235-1.137-2.235-1.837-4.7-3.105-6.859a31.233,31.233,0,0,1-2.138-4.015,13.843,13.843,0,0,1-.375-9.259,1.268,1.268,0,0,0-1.479.08,3.06,3.06,0,0,0-.893,1.3,11.569,11.569,0,0,0-.887,5.437,2.155,2.155,0,0,1-.148,1.331,1.706,1.706,0,0,1-1.445.609,12.968,12.968,0,0,1-3.339-.6,30.99,30.99,0,0,0-9.225-.876,7.261,7.261,0,0,0-.836-.836c-.108-.091-.228-.182-.347-.273l-.353-.284-.182-.142-.336-.3a2.275,2.275,0,0,1-.825-1.41c0-.074,0-.142,0-.216v-.193a2.456,2.456,0,0,1,.182-.569c.057-.125.114-.245.176-.364s.063-.119.091-.182.063-.119.091-.182a6.16,6.16,0,0,0,.262-.677,6.031,6.031,0,0,0,.165-.705,6.121,6.121,0,0,0,.074-.717,6.3,6.3,0,0,0,0-.734,1.6,1.6,0,0,0-.028-.364,8.3,8.3,0,0,0-.3-1.439,9.447,9.447,0,0,0-.393-1.035,12.06,12.06,0,0,0-.682-1.285,19.953,19.953,0,0,0-1.74-2.355l-.478-.569c-.159-.182-.324-.364-.483-.569a18.556,18.556,0,0,1-1.4-1.706,6.643,6.643,0,0,1-.779-1.439,4.3,4.3,0,0,1-.171-.523,5.923,5.923,0,0,1-.148-1c0-.114,0-.228,0-.336a11.949,11.949,0,0,1,.063-1.354c.063-.637.148-1.274.239-1.917.057-.427.119-.859.176-1.285l.063-.637c.051-.432.1-.859.125-1.285a12.342,12.342,0,0,0-.2-3.754,8.616,8.616,0,0,0-.381-1.2,7.716,7.716,0,0,0-.779-1.45,10.585,10.585,0,0,0-4.5-3.515,21.366,21.366,0,0,0-4.1-1.308c-.569-.125-1.137-.228-1.706-.319-8.417-1.354-17.358,1.211-22.687,8.1a31.435,31.435,0,0,0-6.125,12.012c-1.007,4.419-.569,9.3,1.928,13.081,1.047,1.6,2.423,2.975,3.35,4.641.762,1.365,1.211,2.895,2.03,4.226a9.97,9.97,0,0,0,4.493,3.771c-.119.114-.233.222-.353.324a10.966,10.966,0,0,0-2.52.057c-.864.142-1.706.472-2.559.569-1.069.137-2.161-.068-3.23.068-1.991.256-3.629,1.632-5.119,2.952-1.769,1.541-3.674,3.35-3.811,5.687v.068l-1.189,1.587a5.758,5.758,0,0,0-.745,1.172c-.483,1.137-.216,2.429-.472,3.623a7.762,7.762,0,0,1-.938,2.161,49.013,49.013,0,0,1-4.061,6.046,10.709,10.709,0,0,1-2.525,2.491,4.516,4.516,0,0,1-2.616.745,16.543,16.543,0,0,1-3.839-2.571,24.36,24.36,0,0,1-3.412-4.214c-1.917-2.775,4.049,5.528,2.127,2.747l-17.25-28.852a23.472,23.472,0,0,1-.682-4.1c-.04-.529-.222-1.228-.751-1.24a.927.927,0,0,0-.614.3,3.515,3.515,0,0,0-1.137,3,4.105,4.105,0,0,0-2.645.466,1.464,1.464,0,0,0-.336,2.15v.2a1.137,1.137,0,0,0-.609,1.223,4.125,4.125,0,0,0-2.844.131c-.842.478-1.172,1.883-.347,2.4a2.474,2.474,0,0,0-1.558,2.394Zm108.232,4.129a12.567,12.567,0,0,0,1.513.392,24.457,24.457,0,0,1,4.7,1.6,2.56,2.56,0,0,1,1.217.916,2.745,2.745,0,0,1-.137,2.3q-1.075,2.883-2.144,5.773c-.336.9-.671,1.809-1.086,2.679-.171.353-.353.694-.535,1.035-.068-.188-.137-.375-.2-.569a45.931,45.931,0,0,1-1.536-5.369c-.358-1.57-.66-3.157-.91-4.749A23.026,23.026,0,0,0,807.43,401.721ZM805.2,397.2a1.607,1.607,0,0,0,.159.114,1.706,1.706,0,0,1,.569.387.853.853,0,0,1,0,.836Zm-3.862-5.568,2.554.375a3.367,3.367,0,0,1,1.706.569,1.137,1.137,0,0,1,.233,1.627,3.164,3.164,0,0,1-.569.381,1.649,1.649,0,0,0-.609,1.672,17.963,17.963,0,0,0-1.467-2.275,11.287,11.287,0,0,0-1.706-1.752A3.227,3.227,0,0,0,801.333,391.631ZM776.747,575.716h.944a9.4,9.4,0,0,0-.154,2.275Z" transform="translate(-243.719 -170.549)" fill="url(#linear-gradient)"/>
    <path id="Path_229" data-name="Path 229" d="M819.344,353.082c4.442.717,9.379,2.423,11.079,6.592,1.285,3.145.29,6.688-.04,10.067a7.866,7.866,0,0,0,.1,2.684,9.411,9.411,0,0,0,2.349,3.68,19.472,19.472,0,0,1,3.412,4.743,6.948,6.948,0,0,1,.228,5.687,4.059,4.059,0,0,0-.569,1.49c-.057,1.137,1.137,1.888,2.042,2.622,3.339,2.764,3.191,7.792,3.219,12.12a61.423,61.423,0,0,0,5.8,25.593,7.826,7.826,0,0,1-8.753-1.138,29.225,29.225,0,0,0,1.985,5.733c-2.844,1.365-6.222-.882-7.638-3.68s-1.581-6.046-2.588-9.015-2.787-5.551-3.555-8.531a7.722,7.722,0,0,0-1.012-2.844,7.452,7.452,0,0,0-1.775-1.513,17.336,17.336,0,0,1-6.256-8.531c-3.452.762-6.979,1.53-10.5,1.206s-7.115-1.911-8.975-4.925c-.819-1.325-1.268-2.844-2.03-4.214-.927-1.666-2.275-3.043-3.344-4.641a17.119,17.119,0,0,1-1.934-13.081,31.308,31.308,0,0,1,6.125-12C801.98,354.293,810.932,351.751,819.344,353.082Z" transform="translate(-282.915 -171.805)" fill="#3a3768"/>
    <path id="Path_230" data-name="Path 230" d="M819.344,353.082c4.442.717,9.379,2.423,11.079,6.592,1.285,3.145.29,6.688-.04,10.067a7.866,7.866,0,0,0,.1,2.684,9.411,9.411,0,0,0,2.349,3.68,19.472,19.472,0,0,1,3.412,4.743,6.948,6.948,0,0,1,.228,5.687,4.059,4.059,0,0,0-.569,1.49c-.057,1.137,1.137,1.888,2.042,2.622,3.339,2.764,3.191,7.792,3.219,12.12a61.423,61.423,0,0,0,5.8,25.593,7.826,7.826,0,0,1-8.753-1.138,29.225,29.225,0,0,0,1.985,5.733c-2.844,1.365-6.222-.882-7.638-3.68s-1.581-6.046-2.588-9.015-2.787-5.551-3.555-8.531a7.722,7.722,0,0,0-1.012-2.844,7.452,7.452,0,0,0-1.775-1.513,17.336,17.336,0,0,1-6.256-8.531c-3.452.762-6.979,1.53-10.5,1.206s-7.115-1.911-8.975-4.925c-.819-1.325-1.268-2.844-2.03-4.214-.927-1.666-2.275-3.043-3.344-4.641a17.119,17.119,0,0,1-1.934-13.081,31.308,31.308,0,0,1,6.125-12C801.98,354.293,810.932,351.751,819.344,353.082Z" transform="translate(-282.915 -171.805)" opacity="0.2"/>
    <path id="Path_231" data-name="Path 231" d="M880.713,445.451q.375,2.389.91,4.743a46.153,46.153,0,0,0,1.536,5.363,5.118,5.118,0,0,1,.478,2.463,4.446,4.446,0,0,1-.569,1.467c-2.03,3.606-4.766,7.087-5,11.216a5.856,5.856,0,0,1-.569,2.992q-2.366-5.073-5.21-9.879c-1.974-3.356-4.169-6.74-4.738-10.59a19.828,19.828,0,0,1,.068-5.443,11.736,11.736,0,0,1,1.956-5.722c1.337-1.757,5.016-4.4,7.394-3.856C879.78,438.847,880.361,443.176,880.713,445.451Z" transform="translate(-316.257 -208.631)" fill="#3f3d56"/>
    <path id="Path_232" data-name="Path 232" d="M736.51,454.929a24.2,24.2,0,0,1-7.468-4.175,25.024,25.024,0,0,1-3.412-4.209l-6.256-9.026c-1.479-2.138-3-4.391-3.321-6.973a22.971,22.971,0,0,1-6.256-14.173c-.04-.529-.216-1.223-.751-1.234a.921.921,0,0,0-.609.29,3.526,3.526,0,0,0-1.137,2.992,4.192,4.192,0,0,0-2.645.466c-.745.529-.938,1.854-.142,2.275a1.138,1.138,0,0,0-.8,1.291,4.158,4.158,0,0,0-2.844.136c-.842.478-1.166,1.877-.347,2.394a2.468,2.468,0,0,0-1.587,2.372,4.761,4.761,0,0,0,1.081,2.8c2.4,3.219,6.632,4.521,9.413,7.394a22.181,22.181,0,0,1,2.446,3.27l8.139,12.3c2.565,3.9,5.187,7.866,8.838,10.766a8.134,8.134,0,0,0,3.293,1.746,3.623,3.623,0,0,0,3.458-.961,5.632,5.632,0,0,0,1.007-3.447C736.732,459.144,736.38,457.011,736.51,454.929Z" transform="translate(-243.608 -198.715)" fill="#ee8e9e"/>
    <path id="Path_233" data-name="Path 233" d="M811.378,779.137a7.144,7.144,0,0,0-.859,1.041,3.668,3.668,0,0,0-.364,2.986,4.038,4.038,0,0,0,1.956,2.315,3.665,3.665,0,0,1,.614.353,3.364,3.364,0,0,0,.375.318,1.5,1.5,0,0,0,.836.154,28.62,28.62,0,0,0,6.37-1.086,3.786,3.786,0,0,0,3.526-2.974l.756-2.11a24.221,24.221,0,0,0,1.166-3.919,8.116,8.116,0,0,0-.21-4.044,1.275,1.275,0,0,0-.279.83,9.1,9.1,0,0,1-1.621,3.924,3.851,3.851,0,0,1-.637.785,4.016,4.016,0,0,1-1.888.8,24.077,24.077,0,0,1-4.032.517,1.228,1.228,0,0,1-.569-.068.95.95,0,0,1-.455-.569,2.4,2.4,0,0,1,0-1.655c.358-1.024,1.365-1.706,1.848-2.673.353-.722-.136-1.513-.87-.91a24.352,24.352,0,0,0-1.86,1.968Z" transform="translate(-291.499 -352.687)" fill="#3f3d56"/>
    <path id="Path_234" data-name="Path 234" d="M821.176,752.95c.216,3.412.37,7.052-1.484,9.9-.671,1.024-1.564,1.883-2.326,2.844a3.414,3.414,0,0,0-.83,1.706,2.666,2.666,0,0,0,2.275,2.537,7.272,7.272,0,0,0,3.668-.529,8.857,8.857,0,0,0,3.111-1.467c1.615-1.365,2.042-3.64,2.366-5.727l.756-4.851a11.681,11.681,0,0,0-.677-7.348l-1.246-3.646a1.671,1.671,0,0,0-.569-.9,1.53,1.53,0,0,0-.944-.176c-1.194.057-4.192.489-4.772,1.752C820.032,748.15,821.1,751.648,821.176,752.95Z" transform="translate(-294.319 -341.088)" fill="#ee8e9e"/>
    <path id="Path_235" data-name="Path 235" d="M821.176,752.95c.216,3.412.37,7.052-1.484,9.9-.671,1.024-1.564,1.883-2.326,2.844a3.414,3.414,0,0,0-.83,1.706,2.666,2.666,0,0,0,2.275,2.537,7.272,7.272,0,0,0,3.668-.529,8.857,8.857,0,0,0,3.111-1.467c1.615-1.365,2.042-3.64,2.366-5.727l.756-4.851a11.681,11.681,0,0,0-.677-7.348l-1.246-3.646a1.671,1.671,0,0,0-.569-.9,1.53,1.53,0,0,0-.944-.176c-1.194.057-4.192.489-4.772,1.752C820.032,748.15,821.1,751.648,821.176,752.95Z" transform="translate(-294.319 -341.088)" opacity="0.05"/>
    <path id="Path_236" data-name="Path 236" d="M777.79,575.621v.091a4.32,4.32,0,0,0,.461,1.376A19.725,19.725,0,0,1,780,584.152a6.255,6.255,0,0,0,.245,1.792,8.861,8.861,0,0,0,.91,1.57c1.081,1.758,1.331,3.873,1.706,5.9a46.75,46.75,0,0,0,2.065,7.735c1.234,3.412,2.9,6.939,2.337,10.539a10.626,10.626,0,0,0-.324,2.594,7.555,7.555,0,0,0,1.018,2.724q.626,1.24,1.138,2.525a29.338,29.338,0,0,1,.967,2.844c.336,1.137.569,2.537-.21,3.469a4.335,4.335,0,0,0-.62.762,1.95,1.95,0,0,0,0,1.308q.654,2.781,1.4,5.534.569,2.167,1.223,4.305c3.122,10.476,6.649,20.85,8.747,31.577.3,1.541,2.275,2.65,3.816,2.992a5.005,5.005,0,0,0,4.385-1.172,3.838,3.838,0,0,0,.3-.307c1.61-1.706,1.843-4.391,1.706-6.785-.569-11.039-6.1-21.146-8.747-31.85a61.07,61.07,0,0,1-1.706-11.836c-.62-13.331-.87-27.413,2.9-40.221.779-2.662,1.706-5.687.3-8.059a8.1,8.1,0,0,0-4.169-3.048,26.851,26.851,0,0,0-20.8.535,7.426,7.426,0,0,0,.034.8,8.168,8.168,0,0,1-.421,3.68A4.55,4.55,0,0,0,777.79,575.621Z" transform="translate(-277.613 -264.296)" fill="#3a3768"/>
    <path id="Path_237" data-name="Path 237" d="M849.168,761.72l.7,2.565a29.821,29.821,0,0,0,1.5,4.516,18.712,18.712,0,0,1,1.331,3.065,9.472,9.472,0,0,1,.233,2.628,8.181,8.181,0,0,1-.364,2.491,6.211,6.211,0,0,1-3.634,3.447,17.376,17.376,0,0,1-5.051.95,4.311,4.311,0,0,1-1.325-.034,3.76,3.76,0,0,1-1.285-.671c-2.338-1.706-3.543-4.886-3.754-7.78a9.3,9.3,0,0,1,.392-1.985c.182-.245,1.951.751,1.194,1.587-1.138,1.234,2.161.569,3.828.489a14.825,14.825,0,0,0,2.167-.353l2.7-.569c.882-.188,1.905-.489,2.212-1.337s-.37-1.854-.9-2.679c-1.41-2.178-1.769-4.851-2.1-7.394-.063-.506-.694-3.782.609-2.764a3.651,3.651,0,0,1,.9,1.706A14.812,14.812,0,0,1,849.168,761.72Z" transform="translate(-303.372 -346.445)" fill="#3f3d56"/>
    <path id="Path_238" data-name="Path 238" d="M798.435,663.978c.762-.933.54-2.309.2-3.469-.125-.432-.262-.859-.4-1.285l10.6-3.583c.04.95.08,1.894.125,2.844a61.5,61.5,0,0,0,1.706,11.836c2.65,10.732,8.207,20.839,8.747,31.85.125,2.537-.148,5.375-2.025,7.092a5.028,5.028,0,0,1-4.391,1.183c-1.536-.336-3.515-1.45-3.816-2.992-2.093-10.727-5.625-21.1-8.747-31.577q-1.462-4.88-2.633-9.839a2.008,2.008,0,0,1,0-1.3A4.051,4.051,0,0,1,798.435,663.978Z" transform="translate(-286.195 -302.433)" opacity="0.05"/>
    <path id="Path_239" data-name="Path 239" d="M844.532,740.967c.836,1.439,2.116,2.719,2.315,4.368a28.069,28.069,0,0,1-.188,3,9.5,9.5,0,0,0,.444,2.446q1.536,5.585,3.56,11.028a3.061,3.061,0,0,1,.284,1.5c-.137.847-.961,1.4-1.752,1.746-2.525,1.081-5.369,1.007-8.11.893a4.266,4.266,0,0,1-2.275-.529,3.979,3.979,0,0,1-1.291-3.191c-.188-3.412.4-6.9,0-10.317-.136-1.246-.4-2.474-.569-3.714a10.758,10.758,0,0,1,.159-5.176,11.841,11.841,0,0,1,1.934-3.259,10.237,10.237,0,0,1,2.7-2.684c.319-.193,1.24-.779,1.564-.415.171.193.1.694.119.927a9.445,9.445,0,0,0,.188,1.064,8.88,8.88,0,0,0,.921,2.315Z" transform="translate(-303.025 -337.323)" fill="#ee8e9e"/>
    <path id="Path_240" data-name="Path 240" d="M798.627,579.886a2.927,2.927,0,0,1,.2,2.411c-.358,1.467-.938,2.844-1.416,4.3a59.026,59.026,0,0,0-1.826,7.815c-.444,2.389-1.388,5.045-1,7.445a53.287,53.287,0,0,0-5.631,17.631c-.21,1.581,3.3,3.629,3.236,5.221-.131,3.174-2.667,3.412-.8,5.96.091.131-.7,2.963-.569,3.088.762.91,1.706,1.638,2.542,2.5a18.924,18.924,0,0,1,2.679,3.924c4.834,8.725,11.813,18.615,9.669,28.358a1.706,1.706,0,0,0,.921,1.752,4.738,4.738,0,0,0,2.042.472h.336c1.609-1.706,1.843-4.391,1.706-6.785-.569-11.039-6.1-21.146-8.747-31.85a61.061,61.061,0,0,1-1.706-11.836c-.62-13.331-.87-27.413,2.9-40.222.779-2.662,1.706-5.687.3-8.059a8.1,8.1,0,0,0-4.169-3.048,26.85,26.85,0,0,0-20.8.535,7.4,7.4,0,0,0,.034.8,8.166,8.166,0,0,1-.421,3.68,4.548,4.548,0,0,0-.415,1.6s-.193-2.15-.188-2.116c4.328.626,8.85,3.452,13.178,4.072a30.714,30.714,0,0,1,6.58,1.467,2.907,2.907,0,0,1,1.359.887Z" transform="translate(-277.492 -264.261)" opacity="0.05"/>
    <path id="Path_241" data-name="Path 241" d="M827.91,544.979q.876,2.776,1.536,5.608a4.657,4.657,0,0,1,.154,2.013,12.282,12.282,0,0,0-.569,1.843c-.1,1,.569,1.877.978,2.8.978,2.36-.068,5.028-1.1,7.365l-3.06,6.939-2.514,5.687c-.745,1.706-1.49,3.412-2.212,5.085a165.625,165.625,0,0,0-8,23.978,2.917,2.917,0,0,1-.415,1.041c-.427.569-1.194.734-1.82,1.075a3.4,3.4,0,0,0-.375,5.42c-.353,4.169,2.77,8.2,4.379,12.057,3.708,8.878,3.037,18.882,4.305,28.437l-1.433-.842c-1.382.631-1.337,2.594-2.082,3.919-1.138,1.991-3.839,2.275-6.12,2.121a4.736,4.736,0,0,1-2.042-.472,1.706,1.706,0,0,1-.916-1.752c2.144-9.743-4.829-19.633-9.669-28.358a19.376,19.376,0,0,0-2.679-3.924c-.819-.865-1.78-1.593-2.542-2.508-2.138-2.559-2.406-6.165-2.275-9.492a53.21,53.21,0,0,1,6.057-22.431c-.387-2.4.569-5.056,1-7.445a59.944,59.944,0,0,1,1.826-7.815c.478-1.433,1.063-2.844,1.416-4.3a2.3,2.3,0,0,0-1.6-3.3,30.714,30.714,0,0,0-6.609-1.462l-14.878-2.133a37.944,37.944,0,0,1-.637-9.544,14.685,14.685,0,0,1,10.493-12.273,2.216,2.216,0,0,1,1.939.131,77.469,77.469,0,0,1,39.459,2.531Z" transform="translate(-276.803 -252.991)" fill="#3a3768"/>
    <path id="Path_242" data-name="Path 242" d="M827.444,401.1a7.245,7.245,0,0,0,.654,4.266,6.762,6.762,0,0,0,1.706,1.871,12.757,12.757,0,0,0,4.908,2.434,5.231,5.231,0,0,1,2.935,1.285c1.041,1.263.341,3.168-.569,4.55a11.842,11.842,0,0,1-6.432,5.318c-2.19.6-4.55.233-6.774.62-1.627.284-3.162.955-4.766,1.342a14.071,14.071,0,0,1-12.916-3.606c2.383-1.831,4.863-3.782,6.1-6.523a9.242,9.242,0,0,0,.461-6.256c-.569-2.03-1.86-3.981-1.456-6.086s2.44-3.5,4.465-4.2a28.858,28.858,0,0,1,5.608-1.138c1.046-.142,7.706-1.609,8.122-.882.233.409-1.138,2.844-1.319,3.373a12.811,12.811,0,0,0-.722,3.629Z" transform="translate(-289.861 -189.553)" fill="#ee8e9e"/>
    <path id="Path_243" data-name="Path 243" d="M827.444,401.1a7.245,7.245,0,0,0,.654,4.266,6.762,6.762,0,0,0,1.706,1.871,12.757,12.757,0,0,0,4.908,2.434,5.231,5.231,0,0,1,2.935,1.285c1.041,1.263.341,3.168-.569,4.55a11.842,11.842,0,0,1-6.432,5.318c-2.19.6-4.55.233-6.774.62-1.627.284-3.162.955-4.766,1.342a14.071,14.071,0,0,1-12.916-3.606c2.383-1.831,4.863-3.782,6.1-6.523a9.242,9.242,0,0,0,.461-6.256c-.569-2.03-1.86-3.981-1.456-6.086s2.44-3.5,4.465-4.2a28.858,28.858,0,0,1,5.608-1.138c1.046-.142,7.706-1.609,8.122-.882.233.409-1.138,2.844-1.319,3.373a12.811,12.811,0,0,0-.722,3.629Z" transform="translate(-289.861 -189.553)" opacity="0.05"/>
    <circle id="Ellipse_265" data-name="Ellipse 265" cx="13.513" cy="13.513" r="13.513" transform="translate(515.687 189.381)" fill="#ee8e9e"/>
    <path id="Path_244" data-name="Path 244" d="M815.219,427.157l-9.162,1.541a34.273,34.273,0,0,1-6.825.688,18.992,18.992,0,0,0-3.771,0c-.865.142-1.706.472-2.559.569-1.069.131-2.161-.068-3.23.068-1.991.25-3.623,1.627-5.119,2.946-1.769,1.541-3.674,3.344-3.811,5.687a1.541,1.541,0,0,0,.114.785,2.274,2.274,0,0,0,.677.711c1.706,1.382,2.628,3.412,3.822,5.261a20.224,20.224,0,0,0,4.55,4.908c.4-.25,1.138.421.984.865s-.609.751-.751,1.2c-.324,1.041.956,1.8,1.484,2.753s.267,2.156.324,3.259c.063,1.217.569,2.377.7,3.583.37,2.81-1.018,5.778-.04,8.434a2.681,2.681,0,0,0-2.633,2.053,7.7,7.7,0,0,0,.108,3.594,4.948,4.948,0,0,0-2.395,4.55,1.086,1.086,0,0,1-.119.808,1.138,1.138,0,0,1-.461.267,4.55,4.55,0,0,0-2.844,4.237,2.138,2.138,0,0,1-.08.893,2.008,2.008,0,0,1-.665.682,5.272,5.272,0,0,0-1.962,4.123,2.969,2.969,0,0,0,1.393,2.7,24.62,24.62,0,0,0,6.154,1.831,53.073,53.073,0,0,0,5.955,1.058,52.194,52.194,0,0,0,5.579.171l12.256-.045c3.447,0,6.893-.028,10.328-.262,3.208-.216,6.489-.614,9.595.228.392-.66-.233-1.422-.614-2.082a6.944,6.944,0,0,1-.7-2.884l-.773-8.167a14.7,14.7,0,0,1-.063-3.413c.165-1.2.62-2.343.853-3.532.449-2.275.04-4.658.148-6.984a31.643,31.643,0,0,1,1.069-6.086l2.429-10a41.418,41.418,0,0,1,1.194-5.011q2.81-7.189,5.875-14.275a1.508,1.508,0,0,0-.1-1.268l-2.03-3.629a22.053,22.053,0,0,0-1.854-2.957,11.681,11.681,0,0,0-6.825-4.2,12.1,12.1,0,0,0-7.962,1.183c-.944.5-1.82,1.138-2.775,1.61A11.428,11.428,0,0,1,815.219,427.157Z" transform="translate(-278.882 -201.928)" fill="#3f3d56"/>
    <path id="Path_245" data-name="Path 245" d="M771.81,446.27l-3.191,4.254a5.785,5.785,0,0,0-.745,1.177c-.478,1.137-.216,2.423-.472,3.617a7.638,7.638,0,0,1-.938,2.173,48.465,48.465,0,0,1-4.061,6.034,10.5,10.5,0,0,1-2.52,2.5,4.18,4.18,0,0,1-3.412.6,2.1,2.1,0,0,1,1.138,1.012,12.385,12.385,0,0,1,.785,7.906,8.043,8.043,0,0,1-.887,2.582,3.85,3.85,0,0,1-2.036,1.757A3,3,0,0,0,759,482.419a5.938,5.938,0,0,0,1.752-.87l5.119-3.321a14.12,14.12,0,0,0,2.383-1.792c.961-.955,1.632-2.167,2.559-3.145,1.592-1.706,3.924-2.685,5.045-4.709a21.537,21.537,0,0,0,1.257-4.14c.284-.9.7-1.763.973-2.667a11.952,11.952,0,0,0-1.052-8.531C775.746,450.6,773.7,448.505,771.81,446.27Z" transform="translate(-267.987 -212.14)" fill="#3f3d56"/>
    <path id="Path_246" data-name="Path 246" d="M804.261,367.228a17.892,17.892,0,0,1,4.755-4.948,16.24,16.24,0,0,1,8.571-3.623,9.259,9.259,0,0,1,3.862.626c.057-3.816,1.007-6.353,3.412-5.972,4.442.717,9.379,2.423,11.079,6.592,1.285,3.145.29,6.688-.04,10.067a7.869,7.869,0,0,0,.1,2.684,9.411,9.411,0,0,0,2.349,3.68,19.477,19.477,0,0,1,3.412,4.743,6.947,6.947,0,0,1,.228,5.687,4.06,4.06,0,0,0-.569,1.49c-.057,1.137,1.137,1.888,2.042,2.622,3.339,2.764,3.191,7.792,3.219,12.12a61.426,61.426,0,0,0,5.8,25.593,7.826,7.826,0,0,1-8.753-1.137,29.23,29.23,0,0,0,1.985,5.733c-2.844,1.365-6.222-.882-7.638-3.68s-1.581-6.046-2.588-9.015-2.787-5.551-3.555-8.531a7.722,7.722,0,0,0-1.012-2.844,7.451,7.451,0,0,0-1.775-1.513c-2.912-2.093,1.371-17.9.239-21.305-1.706.375-4.806-7.792-6.575-16.09a8.411,8.411,0,0,1-3.845.387,4.464,4.464,0,0,0-1.371-.1,3.525,3.525,0,0,0-1.206.489,29.514,29.514,0,0,1-4.129,2.036c-2.929,1.092-6.154.95-9.276.8A9.2,9.2,0,0,1,804.261,367.228Z" transform="translate(-288.41 -173.741)" fill="#3a3768"/>
    <path id="Path_247" data-name="Path 247" d="M804.261,367.228a17.892,17.892,0,0,1,4.755-4.948,16.24,16.24,0,0,1,8.571-3.623,9.259,9.259,0,0,1,3.862.626c.057-3.816,1.007-6.353,3.412-5.972,4.442.717,9.379,2.423,11.079,6.592,1.285,3.145.29,6.688-.04,10.067a7.869,7.869,0,0,0,.1,2.684,9.411,9.411,0,0,0,2.349,3.68,19.477,19.477,0,0,1,3.412,4.743,6.947,6.947,0,0,1,.228,5.687,4.06,4.06,0,0,0-.569,1.49c-.057,1.137,1.137,1.888,2.042,2.622,3.339,2.764,3.191,7.792,3.219,12.12a61.426,61.426,0,0,0,5.8,25.593,7.826,7.826,0,0,1-8.753-1.137,29.23,29.23,0,0,0,1.985,5.733c-2.844,1.365-6.222-.882-7.638-3.68s-1.581-6.046-2.588-9.015-2.787-5.551-3.555-8.531a7.722,7.722,0,0,0-1.012-2.844,7.451,7.451,0,0,0-1.775-1.513c-2.912-2.093,1.371-17.9.239-21.305-1.706.375-4.806-7.792-6.575-16.09a8.411,8.411,0,0,1-3.845.387,4.464,4.464,0,0,0-1.371-.1,3.525,3.525,0,0,0-1.206.489,29.514,29.514,0,0,1-4.129,2.036c-2.929,1.092-6.154.95-9.276.8A9.2,9.2,0,0,1,804.261,367.228Z" transform="translate(-288.41 -172.035)" opacity="0.2"/>
    <g id="Group_2" data-name="Group 2" transform="translate(517.017 181.247)" opacity="0.1">
      <path id="Path_248" data-name="Path 248" d="M866.659,428.6a61.424,61.424,0,0,1-5.8-25.593c0-4.328.119-9.356-3.213-12.12-.893-.734-2.1-1.467-2.047-2.622a4.074,4.074,0,0,1,.569-1.49,6.976,6.976,0,0,0-.228-5.687,19.627,19.627,0,0,0-3.384-4.743,9.534,9.534,0,0,1-2.349-3.68,7.728,7.728,0,0,1-.1-2.685c.33-3.378,1.32-6.922.04-10.067-1.649-4.032-6.33-5.761-10.658-6.518a2.457,2.457,0,0,1,1.138-.074c4.442.717,9.379,2.423,11.079,6.592,1.285,3.145.29,6.688-.04,10.067a7.867,7.867,0,0,0,.1,2.684,9.41,9.41,0,0,0,2.349,3.68,19.476,19.476,0,0,1,3.412,4.743,6.947,6.947,0,0,1,.227,5.687,4.062,4.062,0,0,0-.569,1.49c-.057,1.137,1.138,1.888,2.042,2.622,3.339,2.764,3.191,7.792,3.219,12.12a61.427,61.427,0,0,0,5.8,25.593,7.6,7.6,0,0,1-4.288.8,7.393,7.393,0,0,0,2.707-.8Z" transform="translate(-821.239 -353.288)"/>
      <path id="Path_249" data-name="Path 249" d="M873.851,489.423a29.255,29.255,0,0,1-1.991-5.733,7.207,7.207,0,0,0,1.922,1.274,29.592,29.592,0,0,0,1.655,4.459,4.249,4.249,0,0,1-2.611.336A4.317,4.317,0,0,0,873.851,489.423Z" transform="translate(-835.199 -409.525)"/>
      <path id="Path_250" data-name="Path 250" d="M830.821,363.374a9.463,9.463,0,0,0-2.571-.6h.3a9.1,9.1,0,0,1,2.275.171Z" transform="translate(-816.392 -357.373)"/>
      <path id="Path_251" data-name="Path 251" d="M812.632,386.023a29.886,29.886,0,0,0,4.095-2.1,3.5,3.5,0,0,1,1.2-.489,3.907,3.907,0,0,1,1.257.08,4.839,4.839,0,0,0-.87.409,29.508,29.508,0,0,1-4.089,2.1,18.285,18.285,0,0,1-6.825.893A16.111,16.111,0,0,0,812.632,386.023Z" transform="translate(-807.4 -366.281)"/>
      <path id="Path_252" data-name="Path 252" d="M833.624,383a1.6,1.6,0,0,0,.08.364,8.222,8.222,0,0,1-2.013.057,8.631,8.631,0,0,0,1.934-.421Z" transform="translate(-817.875 -366.102)"/>
    </g>
    <path id="Path_253" data-name="Path 253" d="M877.657,456.324a4.954,4.954,0,0,0,1.331,3.947,8.644,8.644,0,0,0,1.877,1.382,4.953,4.953,0,0,0,2.241.842,4.2,4.2,0,0,0,2.844-1.24c2.349-2.065,3.532-5.119,4.612-8.059a62.625,62.625,0,0,0,3.486-11.909c.665-4.4.381-8.952,1.644-13.218-1.138-2.235-1.837-4.7-3.105-6.853a31.123,31.123,0,0,1-2.133-4.01,13.849,13.849,0,0,1-.381-9.248,1.268,1.268,0,0,0-1.479.08,3.048,3.048,0,0,0-.887,1.3,11.376,11.376,0,0,0-.887,5.431,2.178,2.178,0,0,1-.148,1.325,1.661,1.661,0,0,1-1.445.609,12.729,12.729,0,0,1-3.339-.6,30.962,30.962,0,0,0-10.277-.847,4.92,4.92,0,0,0-2,.489,1.86,1.86,0,0,0-1.029,1.672l8.2,1.206a3.413,3.413,0,0,1,1.706.569,1.166,1.166,0,0,1,.233,1.627,3.464,3.464,0,0,1-.569.375,1.706,1.706,0,0,0,.068,2.707,1.706,1.706,0,0,1,.569.381c.336.455-.108,1.052-.25,1.592a1.991,1.991,0,0,0,.99,2.047,6.883,6.883,0,0,0,2.275.773,24.259,24.259,0,0,1,4.692,1.592,2.582,2.582,0,0,1,1.223.916,2.678,2.678,0,0,1-.142,2.275l-2.139,5.767c-.336.9-.671,1.809-1.086,2.679-.569,1.137-1.223,2.19-1.78,3.316a34.692,34.692,0,0,0-1.337,3.225C880.194,451.444,878.021,453.207,877.657,456.324Z" transform="translate(-316.767 -195.532)" fill="#ee8e9e"/>
    <path id="Path_254" data-name="Path 254" d="M373.625,759.705H287.21a3.68,3.68,0,0,1-3.68-3.68v-40.9a3.68,3.68,0,0,1,5.255-3.316c24.837,11.784,51.591,15.834,83.218.182a3.674,3.674,0,0,1,5.323,3.282v40.75a3.68,3.68,0,0,1-3.7,3.68Z" transform="translate(-64.46 -327.073)" fill="#6de655"/>
    <path id="Path_255" data-name="Path 255" d="M373.625,759.705H287.21a3.68,3.68,0,0,1-3.68-3.68v-40.9a3.68,3.68,0,0,1,5.255-3.316c24.837,11.784,51.591,15.834,83.218.182a3.674,3.674,0,0,1,5.323,3.282v40.75a3.68,3.68,0,0,1-3.7,3.68Z" transform="translate(-64.46 -326.504)" opacity="0.1"/>
    <ellipse id="Ellipse_266" data-name="Ellipse 266" cx="5.119" cy="6.7" rx="5.119" ry="6.7" transform="translate(260.224 388.691)" fill="#3f3d56"/>
    <ellipse id="Ellipse_267" data-name="Ellipse 267" cx="5.119" cy="6.7" rx="5.119" ry="6.7" transform="translate(260.224 380.501)" fill="#3f3d56"/>
    <ellipse id="Ellipse_268" data-name="Ellipse 268" cx="5.119" cy="6.7" rx="5.119" ry="6.7" transform="translate(260.224 372.312)" fill="#3f3d56"/>
    <ellipse id="Ellipse_269" data-name="Ellipse 269" cx="5.119" cy="6.7" rx="5.119" ry="6.7" transform="translate(260.224 364.122)" fill="#3f3d56"/>
    <ellipse id="Ellipse_270" data-name="Ellipse 270" cx="5.119" cy="6.7" rx="5.119" ry="6.7" transform="translate(260.224 355.932)" fill="#3f3d56"/>
    <ellipse id="Ellipse_271" data-name="Ellipse 271" cx="5.119" cy="6.7" rx="5.119" ry="6.7" transform="translate(260.224 347.742)" fill="#3f3d56"/>
    <ellipse id="Ellipse_272" data-name="Ellipse 272" cx="5.119" cy="6.7" rx="5.119" ry="6.7" transform="translate(260.224 339.552)" fill="#3f3d56"/>
    <path id="Path_256" data-name="Path 256" d="M365.354,514.764a24.138,24.138,0,0,0,1.905-2.81l-13.451-2.207,14.548.108a24.53,24.53,0,0,0,.466-19.428L349.31,500.551,367.3,487.322a24.524,24.524,0,1,0-40.5,27.442,23.961,23.961,0,0,0-2.793,4.47l17.455,9.072-18.615-6.256a24.553,24.553,0,0,0,3.953,23.023,24.524,24.524,0,1,0,38.544,0,24.507,24.507,0,0,0,0-30.314Z" transform="translate(-80.85 -224.556)" fill="#6de655"/>
    <path id="Path_257" data-name="Path 257" d="M321.583,571.246a24.393,24.393,0,0,0,5.244,15.157,24.524,24.524,0,1,0,38.544,0C368.658,582.234,321.583,568.493,321.583,571.246Z" transform="translate(-80.867 -265.881)" opacity="0.1"/>
    <path id="Path_258" data-name="Path 258" d="M373.625,761.866H287.21a3.68,3.68,0,0,1-3.68-3.674V715.127a3.68,3.68,0,0,1,5.255-3.316c24.809,11.784,44.493,25.548,83.167.182,2.275-1.5,5.323.569,5.323,3.282v42.917a3.674,3.674,0,0,1-3.651,3.674Z" transform="translate(-64.46 -326.504)" fill="#6de655"/>
    <rect id="Rectangle_474" data-name="Rectangle 474" width="5.636" height="46.483" rx="2.29" transform="translate(480.203 138.945)" fill="#3a3768"/>
    <rect id="Rectangle_475" data-name="Rectangle 475" width="3.162" height="15.305" rx="1.581" transform="translate(292.762 102.523)" fill="#3a3768"/>
    <rect id="Rectangle_476" data-name="Rectangle 476" width="3.566" height="26.64" rx="1.783" transform="translate(292.648 130.545)" fill="#3a3768"/>
    <rect id="Rectangle_477" data-name="Rectangle 477" width="3.395" height="26.867" rx="1.698" transform="translate(292.705 166.501)" fill="#3a3768"/>
    <rect id="Rectangle_478" data-name="Rectangle 478" width="188.692" height="383.486" rx="38.99" transform="translate(294.554 51.95)" fill="#3a3768"/>
    <rect id="Rectangle_479" data-name="Rectangle 479" width="26.35" height="5.352" rx="2.676" transform="translate(370.697 63.404)" fill="#e6e8ec"/>
    <circle id="Ellipse_273" data-name="Ellipse 273" cx="3.037" cy="3.037" r="3.037" transform="translate(401.028 63.04)" fill="#e6e8ec"/>
    <path id="Path_259" data-name="Path 259" d="M587.143,143.52H565.531v2.6a12.336,12.336,0,0,1-12.336,12.342H484.337a12.342,12.342,0,0,1-12.342-12.342v-2.6H451.731a14.981,14.981,0,0,0-14.981,14.986V492.04a14.981,14.981,0,0,0,14.981,14.986H587.143a14.986,14.986,0,0,0,14.986-14.986V158.506a14.986,14.986,0,0,0-14.986-14.986Z" transform="translate(-130.537 -81.577)" fill="#e6e8ec"/>
    <path id="Path_260" data-name="Path 260" d="M475.9,674.57v20.3l15.925-10.152Z" transform="translate(-147.421 -310.596)" fill="#3a3768"/>
    <circle id="Ellipse_274" data-name="Ellipse 274" cx="12.512" cy="12.512" r="12.512" transform="translate(375.685 361.608)" opacity="0.1"/>
    <circle id="Ellipse_275" data-name="Ellipse 275" cx="11.375" cy="11.375" r="11.375" transform="translate(376.822 362.745)" fill="#f86d70"/>
    <path id="Path_261" data-name="Path 261" d="M663.757,694.614h-3.9a1.951,1.951,0,0,1-1.951-1.945v-14.3a1.956,1.956,0,0,1,1.951-1.951h3.9a1.951,1.951,0,0,1,1.951,1.951v14.3a1.945,1.945,0,0,1-1.951,1.939Zm12.347-1.939v-14.3a1.951,1.951,0,0,0-1.945-1.951h-3.9a1.956,1.956,0,0,0-1.951,1.951v14.3a1.951,1.951,0,0,0,1.951,1.945h3.9A1.945,1.945,0,0,0,676.1,692.675Z" transform="translate(-225.914 -311.394)" fill="#3a3768"/>
    <rect id="Rectangle_480" data-name="Rectangle 480" width="88.724" height="30.712" rx="3.88" transform="translate(345.257 99.986)" fill="#6de655" opacity="0.2"/>
    <rect id="Rectangle_481" data-name="Rectangle 481" width="155.267" height="90.999" rx="5.51" transform="translate(311.701 173.923)" fill="#fff"/>
    <rect id="Rectangle_482" data-name="Rectangle 482" width="1.183" height="23.887" rx="0.591" transform="translate(321.893 207.478)" fill="#6de655"/>
    <rect id="Rectangle_483" data-name="Rectangle 483" width="1.183" height="32.987" rx="0.591" transform="translate(325.152 202.929)" fill="#6de655"/>
    <rect id="Rectangle_484" data-name="Rectangle 484" width="1.183" height="38.675" rx="0.591" transform="translate(328.405 200.085)" fill="#6de655"/>
    <rect id="Rectangle_485" data-name="Rectangle 485" width="1.183" height="54.031" rx="0.591" transform="translate(331.664 192.407)" fill="#6de655"/>
    <rect id="Rectangle_486" data-name="Rectangle 486" width="1.183" height="39.243" rx="0.591" transform="translate(334.917 199.8)" fill="#6de655"/>
    <rect id="Rectangle_487" data-name="Rectangle 487" width="1.183" height="32.987" rx="0.591" transform="translate(338.17 202.929)" fill="#6de655"/>
    <rect id="Rectangle_488" data-name="Rectangle 488" width="1.183" height="23.887" rx="0.591" transform="translate(341.429 207.478)" fill="#6de655"/>
    <rect id="Rectangle_489" data-name="Rectangle 489" width="1.183" height="15.925" rx="0.591" transform="translate(344.683 211.46)" fill="#6de655"/>
    <rect id="Rectangle_490" data-name="Rectangle 490" width="1.183" height="23.887" rx="0.591" transform="translate(347.941 207.478)" fill="#6de655"/>
    <rect id="Rectangle_491" data-name="Rectangle 491" width="1.183" height="43.224" rx="0.591" transform="translate(351.195 197.81)" fill="#6de655"/>
    <rect id="Rectangle_492" data-name="Rectangle 492" width="1.183" height="66.543" rx="0.591" transform="translate(354.454 186.151)" fill="#6de655"/>
    <rect id="Rectangle_493" data-name="Rectangle 493" width="1.183" height="57.443" rx="0.591" transform="translate(357.707 190.701)" fill="#6de655"/>
    <rect id="Rectangle_494" data-name="Rectangle 494" width="1.183" height="43.224" rx="0.591" transform="translate(360.966 197.81)" fill="#6de655"/>
    <rect id="Rectangle_495" data-name="Rectangle 495" width="1.183" height="32.987" rx="0.591" transform="translate(364.219 202.929)" fill="#6de655"/>
    <rect id="Rectangle_496" data-name="Rectangle 496" width="1.183" height="23.887" rx="0.591" transform="translate(367.472 207.478)" fill="#6de655"/>
    <rect id="Rectangle_497" data-name="Rectangle 497" width="1.183" height="15.925" rx="0.591" transform="translate(370.731 211.46)" fill="#6de655"/>
    <rect id="Rectangle_498" data-name="Rectangle 498" width="1.183" height="23.887" rx="0.591" transform="translate(373.984 207.478)" fill="#6de655"/>
    <rect id="Rectangle_499" data-name="Rectangle 499" width="1.183" height="32.987" rx="0.591" transform="translate(377.243 202.929)" fill="#6de655"/>
    <rect id="Rectangle_500" data-name="Rectangle 500" width="1.183" height="43.224" rx="0.591" transform="translate(380.496 197.81)" fill="#6de655"/>
    <rect id="Rectangle_501" data-name="Rectangle 501" width="1.183" height="32.987" rx="0.591" transform="translate(383.755 202.929)" fill="#6de655"/>
    <rect id="Rectangle_502" data-name="Rectangle 502" width="1.183" height="15.925" rx="0.591" transform="translate(387.008 211.46)" fill="#6de655"/>
    <rect id="Rectangle_503" data-name="Rectangle 503" width="1.183" height="23.887" rx="0.591" transform="translate(390.478 207.478)" fill="#6de655"/>
    <rect id="Rectangle_504" data-name="Rectangle 504" width="1.183" height="32.987" rx="0.591" transform="translate(393.737 202.929)" fill="#6de655"/>
    <rect id="Rectangle_505" data-name="Rectangle 505" width="1.183" height="38.675" rx="0.591" transform="translate(396.99 200.085)" fill="#6de655"/>
    <rect id="Rectangle_506" data-name="Rectangle 506" width="1.183" height="54.031" rx="0.591" transform="translate(400.249 192.407)" fill="#6de655"/>
    <rect id="Rectangle_507" data-name="Rectangle 507" width="1.183" height="39.243" rx="0.591" transform="translate(403.502 199.8)" fill="#6de655"/>
    <rect id="Rectangle_508" data-name="Rectangle 508" width="1.183" height="32.987" rx="0.591" transform="translate(406.755 202.929)" fill="#6de655"/>
    <rect id="Rectangle_509" data-name="Rectangle 509" width="1.183" height="23.887" rx="0.591" transform="translate(410.014 207.478)" fill="#6de655"/>
    <rect id="Rectangle_510" data-name="Rectangle 510" width="1.183" height="15.925" rx="0.591" transform="translate(413.267 211.46)" fill="#6de655"/>
    <rect id="Rectangle_511" data-name="Rectangle 511" width="1.183" height="23.887" rx="0.591" transform="translate(416.526 207.478)" fill="#6de655"/>
    <rect id="Rectangle_512" data-name="Rectangle 512" width="1.183" height="43.224" rx="0.591" transform="translate(419.779 197.81)" fill="#6de655"/>
    <rect id="Rectangle_513" data-name="Rectangle 513" width="1.183" height="66.543" rx="0.591" transform="translate(423.038 186.151)" fill="#6de655"/>
    <rect id="Rectangle_514" data-name="Rectangle 514" width="1.183" height="57.443" rx="0.591" transform="translate(426.292 190.701)" fill="#6de655"/>
    <rect id="Rectangle_515" data-name="Rectangle 515" width="1.183" height="43.224" rx="0.591" transform="translate(429.55 197.81)" fill="#6de655"/>
    <rect id="Rectangle_516" data-name="Rectangle 516" width="1.183" height="32.987" rx="0.591" transform="translate(432.804 202.929)" fill="#6de655"/>
    <rect id="Rectangle_517" data-name="Rectangle 517" width="1.183" height="23.887" rx="0.591" transform="translate(436.057 207.478)" fill="#6de655"/>
    <rect id="Rectangle_518" data-name="Rectangle 518" width="1.183" height="15.925" rx="0.591" transform="translate(439.316 211.46)" fill="#6de655"/>
    <rect id="Rectangle_519" data-name="Rectangle 519" width="1.183" height="23.887" rx="0.591" transform="translate(442.569 207.478)" fill="#6de655"/>
    <rect id="Rectangle_520" data-name="Rectangle 520" width="1.183" height="32.987" rx="0.591" transform="translate(445.828 202.929)" fill="#6de655"/>
    <rect id="Rectangle_521" data-name="Rectangle 521" width="1.183" height="43.224" rx="0.591" transform="translate(449.081 197.81)" fill="#6de655"/>
    <rect id="Rectangle_522" data-name="Rectangle 522" width="1.183" height="32.987" rx="0.591" transform="translate(452.34 202.929)" fill="#6de655"/>
    <rect id="Rectangle_523" data-name="Rectangle 523" width="1.183" height="15.925" rx="0.591" transform="translate(455.593 211.46)" fill="#6de655"/>
    <line id="Line_1" data-name="Line 1" y2="90.999" transform="translate(400.84 173.923)" fill="none" stroke="#f86d70" stroke-miterlimit="10" stroke-width="1"/>
    <g id="Group_3" data-name="Group 3" transform="translate(325.92 165.391)" opacity="0.2">
      <rect id="Rectangle_524" data-name="Rectangle 524" width="13.081" height="5.119" rx="1.49" transform="translate(0 0)" fill="#6de655"/>
      <rect id="Rectangle_525" data-name="Rectangle 525" width="13.081" height="5.119" rx="1.49" transform="translate(22.75 0)" fill="#6de655"/>
      <rect id="Rectangle_526" data-name="Rectangle 526" width="13.081" height="5.119" rx="1.49" transform="translate(45.499 0)" fill="#6de655"/>
      <rect id="Rectangle_527" data-name="Rectangle 527" width="13.081" height="5.119" rx="1.49" transform="translate(68.249 0)" fill="#6de655"/>
      <rect id="Rectangle_528" data-name="Rectangle 528" width="13.081" height="5.119" rx="1.49" transform="translate(90.999 0)" fill="#6de655"/>
      <rect id="Rectangle_529" data-name="Rectangle 529" width="13.081" height="5.119" rx="1.49" transform="translate(113.749 0)" fill="#6de655"/>
    </g>
  </g>
</svg>
